<svg width="78" height="78" viewBox="0 0 78 78" fill="none" xmlns="http://www.w3.org/2000/svg">
<circle cx="39" cy="39" r="39" fill="#A5ECAC"/>
<path d="M38.4996 41.6605C38.2775 41.6605 38.0555 41.6093 37.8675 41.4897C37.2525 41.1309 37.0475 40.3451 37.3892 39.7472L38.8413 37.2189H37.4063C36.5521 37.2189 35.8517 36.843 35.4759 36.2109C35.1 35.5618 35.1342 34.7759 35.5613 34.0243L37.3892 30.8468C37.748 30.2318 38.5338 30.0268 39.1317 30.3684C39.7467 30.7272 39.9517 31.513 39.61 32.111L38.158 34.6564H39.593C40.4471 34.6564 41.1475 35.0322 41.5234 35.6643C41.8992 36.3134 41.865 37.0993 41.438 37.8509L39.61 41.0284C39.3709 41.4384 38.9438 41.6605 38.4996 41.6605Z" fill="#0A8001"/>
<path d="M43.2318 51.7397H33.8189C33.0673 51.7397 32.1106 51.6543 31.4785 51.0051C30.8635 50.373 30.8806 49.5872 30.8977 49.0576V47.5372C26.5927 44.6672 23.7568 39.6788 23.7568 34.9297C23.7568 30.4368 25.7727 26.2343 29.2748 23.4155C32.7768 20.5968 37.3723 19.5376 41.8652 20.5284C46.136 21.468 49.826 24.3209 51.7393 28.1647C55.4464 35.6301 51.876 43.7105 46.1702 47.5543V48.8355C46.1873 49.3309 46.2043 50.2363 45.5039 50.9538C44.9743 51.4663 44.2227 51.7397 43.2318 51.7397ZM33.4431 49.1601C33.5285 49.1601 33.6481 49.1772 33.8018 49.1772H43.2318C43.4027 49.1772 43.5223 49.1601 43.5906 49.143C43.5906 49.0918 43.5906 49.0234 43.5906 48.9722V46.8197C43.5906 46.3755 43.8298 45.9484 44.2056 45.7263C49.2623 42.6684 52.6106 35.6813 49.416 29.2751C47.8443 26.1147 44.8035 23.7743 41.2843 23.0055C37.5602 22.1855 33.7506 23.0568 30.8464 25.3972C27.9423 27.7376 26.2852 31.2055 26.2852 34.9297C26.2852 39.6788 29.5652 43.7788 32.811 45.7434C33.2039 45.9826 33.426 46.3926 33.426 46.8368V49.143C33.4431 49.143 33.4431 49.143 33.4431 49.1601Z" fill="#0A8001"/>
<path d="M44.4791 56.8645C44.3595 56.8645 44.2399 56.8475 44.1203 56.8133C40.4303 55.7541 36.5524 55.7541 32.8624 56.8133C32.1791 57.0012 31.4787 56.6083 31.2737 55.925C31.0687 55.2416 31.4787 54.5412 32.162 54.3362C36.2962 53.1575 40.6866 53.1575 44.8207 54.3362C45.5041 54.5241 45.897 55.2416 45.7091 55.925C45.5553 56.5058 45.0428 56.8645 44.4791 56.8645Z" fill="#0A8001"/>
</svg>
