<svg width="78" height="78" viewBox="0 0 78 78" fill="none" xmlns="http://www.w3.org/2000/svg">
<circle cx="39" cy="39" r="39" fill="#BAAEFF"/>
<path d="M38.5004 56.8646C37.3558 56.8646 36.1942 56.5742 35.1692 55.9763L25.0217 50.1167C22.9717 48.9209 21.6904 46.7171 21.6904 44.3425V32.6576C21.6904 30.283 22.9717 28.0792 25.0217 26.8834L35.1692 21.0238C37.2192 19.828 39.7646 19.828 41.8317 21.0238L51.9792 26.8834C54.0292 28.0792 55.3104 30.283 55.3104 32.6576V44.3425C55.3104 46.7171 54.0292 48.9209 51.9792 50.1167L41.8317 55.9763C40.8067 56.5742 39.645 56.8646 38.5004 56.8646ZM38.5004 22.698C37.8 22.698 37.0825 22.8859 36.4504 23.2446L26.3029 29.1042C25.0388 29.8388 24.2529 31.1884 24.2529 32.6576V44.3425C24.2529 45.7946 25.0388 47.1613 26.3029 47.8959L36.4504 53.7554C37.7146 54.49 39.2863 54.49 40.5504 53.7554L50.6979 47.8959C51.9621 47.1613 52.7479 45.8117 52.7479 44.3425V32.6576C52.7479 31.2055 51.9621 29.8388 50.6979 29.1042L40.5504 23.2446C39.9183 22.8859 39.2008 22.698 38.5004 22.698Z" fill="#7158FF"/>
<path d="M38.4999 38.0731C35.5958 38.0731 33.2383 35.7156 33.2383 32.8114C33.2383 29.9072 35.5958 27.5498 38.4999 27.5498C41.4041 27.5498 43.7616 29.9072 43.7616 32.8114C43.7616 35.7156 41.4041 38.0731 38.4999 38.0731ZM38.4999 30.1123C37.0137 30.1123 35.8008 31.3251 35.8008 32.8114C35.8008 34.2976 37.0137 35.5106 38.4999 35.5106C39.9862 35.5106 41.1991 34.2976 41.1991 32.8114C41.1991 31.3251 39.9862 30.1123 38.4999 30.1123Z" fill="#7158FF"/>
<path d="M45.3337 47.7422C44.6332 47.7422 44.0524 47.1613 44.0524 46.4609C44.0524 44.1034 41.5582 42.1731 38.5003 42.1731C35.4424 42.1731 32.9482 44.1034 32.9482 46.4609C32.9482 47.1613 32.3674 47.7422 31.667 47.7422C30.9666 47.7422 30.3857 47.1613 30.3857 46.4609C30.3857 42.6855 34.0245 39.6106 38.5003 39.6106C42.9762 39.6106 46.6149 42.6855 46.6149 46.4609C46.6149 47.1613 46.0341 47.7422 45.3337 47.7422Z" fill="#7158FF"/>
</svg>
