<svg width="78" height="78" viewBox="0 0 78 78" fill="none" xmlns="http://www.w3.org/2000/svg">
<circle cx="39" cy="39" r="39" fill="#FFCB65"/>
<path d="M42.6005 43.8811H34.4004C33.7 43.8811 33.1191 43.3003 33.1191 42.5999V34.3999C33.1191 33.6995 33.7 33.1187 34.4004 33.1187H42.6005C43.3009 33.1187 43.8817 33.6995 43.8817 34.3999V42.5999C43.8817 43.3003 43.3009 43.8811 42.6005 43.8811ZM35.6816 41.3186H41.3192V35.6812H35.6816V41.3186Z" fill="#A76E00"/>
<path d="M31.325 50.0314C28.9162 50.0314 26.9688 48.0839 26.9688 45.6751C26.9688 43.2664 28.9162 41.3188 31.325 41.3188H34.4C35.1004 41.3188 35.6812 41.8997 35.6812 42.6001V45.6751C35.6812 48.0839 33.7337 50.0314 31.325 50.0314ZM31.325 43.8813C30.3341 43.8813 29.5313 44.6843 29.5313 45.6751C29.5313 46.666 30.3341 47.4689 31.325 47.4689C32.3158 47.4689 33.1187 46.666 33.1187 45.6751V43.8813H31.325Z" fill="#A76E00"/>
<path d="M34.4 35.6813H31.325C28.9162 35.6813 26.9688 33.7337 26.9688 31.325C26.9688 28.9162 28.9162 26.9688 31.325 26.9688C33.7337 26.9688 35.6812 28.9162 35.6812 31.325V34.4C35.6812 35.1004 35.1004 35.6813 34.4 35.6813ZM31.325 29.5312C30.3341 29.5312 29.5313 30.3341 29.5313 31.325C29.5313 32.3158 30.3341 33.1188 31.325 33.1188H33.1187V31.325C33.1187 30.3341 32.3158 29.5312 31.325 29.5312Z" fill="#A76E00"/>
<path d="M45.6746 35.6813H42.5996C41.8992 35.6813 41.3184 35.1004 41.3184 34.4V31.325C41.3184 28.9162 43.2658 26.9688 45.6746 26.9688C48.0833 26.9688 50.0308 28.9162 50.0308 31.325C50.0308 33.7337 48.0833 35.6813 45.6746 35.6813ZM43.8809 33.1188H45.6746C46.6654 33.1188 47.4683 32.3158 47.4683 31.325C47.4683 30.3341 46.6654 29.5312 45.6746 29.5312C44.6838 29.5312 43.8809 30.3341 43.8809 31.325V33.1188Z" fill="#A76E00"/>
<path d="M45.6746 50.0314C43.2658 50.0314 41.3184 48.0839 41.3184 45.6751V42.6001C41.3184 41.8997 41.8992 41.3188 42.5996 41.3188H45.6746C48.0833 41.3188 50.0308 43.2664 50.0308 45.6751C50.0308 48.0839 48.0833 50.0314 45.6746 50.0314ZM43.8809 43.8813V45.6751C43.8809 46.666 44.6838 47.4689 45.6746 47.4689C46.6654 47.4689 47.4683 46.666 47.4683 45.6751C47.4683 44.6843 46.6654 43.8813 45.6746 43.8813H43.8809Z" fill="#A76E00"/>
<path d="M43.6253 56.8647H33.3753C24.0991 56.8647 20.1357 52.9013 20.1357 43.6251V33.3751C20.1357 24.0988 24.0991 20.1355 33.3753 20.1355H43.6253C52.9016 20.1355 56.8649 24.0988 56.8649 33.3751V43.6251C56.8649 52.9013 52.9016 56.8647 43.6253 56.8647ZM33.3753 22.698C25.4999 22.698 22.6982 25.4997 22.6982 33.3751V43.6251C22.6982 51.5005 25.4999 54.3022 33.3753 54.3022H43.6253C51.5007 54.3022 54.3024 51.5005 54.3024 43.6251V33.3751C54.3024 25.4997 51.5007 22.698 43.6253 22.698H33.3753Z" fill="#A76E00"/>
</svg>
