<svg width="78" height="78" viewBox="0 0 78 78" fill="none" xmlns="http://www.w3.org/2000/svg">
<circle cx="39" cy="39" r="39" fill="#FFC6AE"/>
<path d="M32.8116 54.8647H21.417C20.7166 54.8647 20.1357 54.2838 20.1357 53.5834V43.3334C20.1357 40.7367 22.237 38.6355 24.8337 38.6355H32.8116C33.512 38.6355 34.0928 39.2163 34.0928 39.9167V53.5834C34.0928 54.2838 33.512 54.8647 32.8116 54.8647ZM22.6982 52.3022H31.5303V41.198H24.8337C23.6549 41.198 22.6982 42.1547 22.6982 43.3334V52.3022Z" fill="#F64A00"/>
<path d="M44.1895 54.8645H32.7949C32.0945 54.8645 31.5137 54.2837 31.5137 53.5833V36.4999C31.5137 33.9033 33.6149 31.802 36.2116 31.802H40.7728C43.3695 31.802 45.4708 33.9033 45.4708 36.4999V53.5833C45.4708 54.2837 44.907 54.8645 44.1895 54.8645ZM34.0933 52.302H42.9253V36.4999C42.9253 35.3212 41.9687 34.3645 40.7899 34.3645H36.2287C35.0499 34.3645 34.0933 35.3212 34.0933 36.4999V52.302Z" fill="#F64A00"/>
<path d="M55.5831 54.8647H44.1885C43.4881 54.8647 42.9072 54.2838 42.9072 53.5834V45.0417C42.9072 44.3413 43.4881 43.7605 44.1885 43.7605H52.1664C54.7631 43.7605 56.8643 45.8617 56.8643 48.4584V53.5834C56.8643 54.2838 56.2835 54.8647 55.5831 54.8647ZM45.4697 52.3022H54.3018V48.4584C54.3018 47.2797 53.3451 46.323 52.1664 46.323H45.4697V52.3022Z" fill="#F64A00"/>
<path d="M41.4039 30.2646C40.9939 30.2646 40.4814 30.145 39.9006 29.8033L38.4998 28.9662L37.116 29.7862C35.7152 30.6233 34.7927 30.1279 34.451 29.8887C34.1094 29.6496 33.3748 28.8979 33.7335 27.3262L34.0581 25.9083L32.8964 24.7466C32.1789 24.0291 31.9227 23.175 32.1789 22.3891C32.4352 21.6033 33.1356 21.0566 34.1264 20.8858L35.6127 20.6295L36.4498 18.9554C37.3723 17.1275 39.6102 17.1275 40.5156 18.9554L41.3527 20.6295L42.8389 20.8858C43.8298 21.0566 44.5473 21.6033 44.7864 22.3891C45.0427 23.175 44.7694 24.0291 44.0689 24.7466L42.9073 25.9083L43.2319 27.3262C43.5906 28.915 42.856 29.6496 42.5144 29.9058C42.3606 30.0425 41.9677 30.2646 41.4039 30.2646ZM38.4998 26.3866C38.9098 26.3866 39.3198 26.4892 39.6614 26.6942L40.6181 27.2579L40.4131 26.3354C40.2423 25.6179 40.4985 24.7466 41.0281 24.2171L41.8994 23.3458L40.8231 23.1579C40.1398 23.0383 39.4735 22.5429 39.166 21.9279L38.4998 20.6466L37.8506 21.9279C37.5431 22.5429 36.8769 23.0383 36.1935 23.1579L35.1173 23.3287L35.9885 24.2C36.5181 24.7295 36.7573 25.6008 36.6035 26.3183L36.3985 27.2408L37.3552 26.6771C37.6798 26.4721 38.0898 26.3866 38.4998 26.3866Z" fill="#F64A00"/>
</svg>
