<svg width="78" height="78" viewBox="0 0 78 78" fill="none" xmlns="http://www.w3.org/2000/svg">
<circle cx="39" cy="39" r="39" fill="#F3D876"/>
<path d="M38.5172 56.8475C37.4409 56.8475 36.3817 56.4887 35.5447 55.7712L32.8455 53.465C32.5722 53.2258 31.8888 52.9866 31.5301 52.9866H28.5405C26.0122 52.9866 23.9622 50.9366 23.9622 48.4083V45.487C23.9622 45.1283 23.723 44.445 23.5009 44.1887L21.1776 41.4554C19.7767 39.7983 19.7767 37.2016 21.1776 35.5275L23.5009 32.7941C23.723 32.5379 23.9622 31.8545 23.9622 31.4958V28.5916C23.9622 26.0633 26.0122 24.0133 28.5405 24.0133H31.4959C31.8547 24.0133 32.5209 23.757 32.8113 23.5179L35.5105 21.2116C37.1847 19.7937 39.7984 19.7937 41.4726 21.2116L44.1717 23.5179C44.4451 23.757 45.1455 23.9962 45.5042 23.9962H48.4084C50.9367 23.9962 52.9867 26.0462 52.9867 28.5745V31.4787C52.9867 31.8375 53.243 32.5037 53.4822 32.7941L55.7884 35.4933C57.2234 37.1845 57.2063 39.7983 55.7884 41.4554L53.4822 44.1545C53.243 44.445 53.0038 45.1112 53.0038 45.47V48.3741C53.0038 50.9025 50.9538 52.9525 48.4255 52.9525H45.5213C45.1626 52.9525 44.4963 53.2087 44.1888 53.4479L41.4897 55.7541C40.6526 56.4887 39.5763 56.8475 38.5172 56.8475ZM28.5405 26.5758C27.4301 26.5758 26.5247 27.4812 26.5247 28.5916V31.4958C26.5247 32.4695 26.0805 33.6995 25.4484 34.4512L23.1251 37.1845C22.5442 37.885 22.5442 39.115 23.1251 39.7983L25.4313 42.5145C26.0463 43.215 26.5076 44.4962 26.5076 45.47V48.3912C26.5076 49.5016 27.413 50.407 28.5234 50.407H31.4959C32.4526 50.407 33.7167 50.8683 34.4684 51.5004L37.1847 53.8237C37.8851 54.4216 39.098 54.4216 39.8155 53.8237L42.5147 51.5175C43.2834 50.8683 44.5305 50.4241 45.4872 50.4241H48.3913C49.5017 50.4241 50.4072 49.5187 50.4072 48.4083V45.5041C50.4072 44.5475 50.8684 43.3004 51.5005 42.5316L53.8238 39.8154C54.4217 39.115 54.4217 37.885 53.8238 37.1845L51.5176 34.4854C50.8684 33.7166 50.4242 32.4695 50.4242 31.5129V28.5916C50.4242 27.4812 49.5188 26.5758 48.4084 26.5758H45.5042C44.5305 26.5758 43.2663 26.1145 42.5147 25.4825L39.7984 23.1591C39.098 22.5612 37.8851 22.5612 37.1676 23.1591L34.4855 25.4825C33.7167 26.1145 32.4697 26.5758 31.4959 26.5758H28.5405Z" fill="#6A5300"/>
<path d="M43.3001 45.7433L38.4997 34.9295L33.6993 45.7433L31.3418 44.7012L37.321 31.2566H39.6785L45.6576 44.7012L43.3001 45.7433Z" fill="#6A5300"/>
<path d="M41.4899 42.0193H35.5107C34.8103 42.0193 34.2295 41.4385 34.2295 40.738C34.2295 40.0376 34.8103 39.4568 35.5107 39.4568H41.4899C42.1903 39.4568 42.7712 40.0376 42.7712 40.738C42.7712 41.4385 42.1903 42.0193 41.4899 42.0193Z" fill="#6A5300"/>
</svg>
