<svg width="78" height="78" viewBox="0 0 78 78" fill="none" xmlns="http://www.w3.org/2000/svg">
<circle cx="39" cy="39" r="39" fill="#DBAEFF"/>
<path d="M36.6813 50.4162C35.5197 50.4162 34.4092 49.8866 33.3501 48.8274L28.5155 43.9929C26.3972 41.8746 26.3972 39.4487 28.5155 37.3474L36.5788 29.2842C37.0743 28.7887 37.8943 28.7887 38.3897 29.2842L47.2559 38.1504C47.7172 38.6117 47.9564 39.2095 47.9564 39.8586C47.9564 40.5078 47.7001 41.1228 47.2559 41.567L39.9955 48.8274C38.9705 49.8866 37.843 50.4162 36.6813 50.4162ZM37.5013 31.9833L30.3434 39.1412C29.7968 39.6878 29.5063 40.2005 29.5063 40.6617C29.5063 41.1059 29.7797 41.6182 30.3434 42.182L35.178 47.0167C36.2884 48.1271 37.0913 48.1271 38.2017 47.0167L45.3597 39.8586L37.5013 31.9833Z" fill="#8F00FF"/>
<path d="M37.501 31.4538C37.1764 31.4538 36.8518 31.3343 36.5956 31.078L34.9897 29.4722C34.4943 28.9768 34.4943 28.1568 34.9897 27.6614C35.4851 27.1659 36.3052 27.1659 36.8006 27.6614L38.4064 29.2672C38.9018 29.7626 38.9018 30.5826 38.4064 31.078C38.1501 31.3343 37.8256 31.4538 37.501 31.4538Z" fill="#8F00FF"/>
<path d="M28.2935 41.8749C27.6102 41.8749 27.0464 41.3453 27.0123 40.6449C26.9781 39.9445 27.5248 39.3465 28.2423 39.3123L46.4872 38.5094C47.1877 38.441 47.7856 39.0219 47.8197 39.7394C47.8539 40.4399 47.3072 41.0378 46.5897 41.072L28.3448 41.8749C28.3277 41.8749 28.3106 41.8749 28.2935 41.8749Z" fill="#8F00FF"/>
<path d="M48.5543 51.7148C46.6239 51.7148 45.0352 50.143 45.0352 48.1955C45.0352 46.3505 46.9997 44.0786 47.5977 43.4294C48.076 42.8998 48.9985 42.8998 49.4768 43.4294C50.0747 44.0786 52.0393 46.3676 52.0393 48.1955C52.0564 50.143 50.4847 51.7148 48.5543 51.7148ZM48.5543 46.3335C48.0247 47.0852 47.5977 47.8368 47.5977 48.1955C47.5977 48.708 48.0247 49.1523 48.5543 49.1523C49.0839 49.1523 49.511 48.7251 49.511 48.1955C49.4939 47.8368 49.0839 47.0852 48.5543 46.3335Z" fill="#8F00FF"/>
<path d="M44.6253 57.8647H34.3753C25.0991 57.8647 21.1357 53.9013 21.1357 44.6251V34.3751C21.1357 25.0988 25.0991 21.1355 34.3753 21.1355H44.6253C53.9016 21.1355 57.8649 25.0988 57.8649 34.3751V44.6251C57.8649 53.9013 53.9016 57.8647 44.6253 57.8647ZM34.3753 23.698C26.4999 23.698 23.6982 26.4997 23.6982 34.3751V44.6251C23.6982 52.5005 26.4999 55.3022 34.3753 55.3022H44.6253C52.5007 55.3022 55.3024 52.5005 55.3024 44.6251V34.3751C55.3024 26.4997 52.5007 23.698 44.6253 23.698H34.3753Z" fill="#8F00FF"/>
</svg>
